<svg xmlns="http://www.w3.org/2000/svg" 
     x="0px" y="0px"
	 viewBox="0 0 2000 2000" >
<g>
		<path fill="#231F20" d="M1619.7,370.1c-1,0.1-1.6,0.7-1.7,1.7c0,0.3,0.1,0.6,0.2,0.9c0.2,0.5,0.9,0.9,1.5,0.8
			c3.3-0.3,6.5,0.4,9.1,2.6c1.2,1,2.8-0.6,1.7-1.7C1627.7,371.4,1623.8,369.7,1619.7,370.1z"/>
		<path fill="#231F20" d="M1788.2,337.2c-6-14.1-18.4-26.5-32.6-32.2c-6.4-2.6-13.2-3.5-20-2.8c2.5-12.1-3-26.2-10.1-35.7
			c-8.2-11-20.4-18.2-33.7-21.2c-12.8-2.9-28.8-2.1-39.5,6.3c-8.3,6.5-12.7,16.2-16,26c-1.8-1.7-4.1-3.1-6.4-4.3
			c-6.3-3.1-13-5.2-19.9-6.5c-6.7-1.3-13.8-1.8-20.6-0.8c-6.8,1-12.7,4-18.1,8c-5.4,4-10.4,8.4-14.4,13.8
			c-3.8,5.1-5.5,11.6-5.8,17.8c-0.3,6.4,1.3,13.2,4.4,19.3c-4.7-1.9-10-2.6-15-2.8c-8.3-0.3-16.3,2-23.5,6
			c-15,8.3-25.1,22.4-26.3,39.6c-1.1,15.6,6.2,30.6,18,40.5c5.8,4.8,12.5,8.3,19.6,10.5c6.2,1.9,14.7,3.7,20.9,0.8
			c-0.1,1.5,0,3,0.3,4.4c1.4,8.9,7.4,17,16,20.2c7.5,2.8,15.7,1.9,22.4-2c3.3,10.5,13.5,16.9,23.7,20.2c6.3,2,13.3,3.3,19.6,0.8
			c5.5-2.1,9.7-6.9,13.1-11.5c0,0,0-0.1,0.1-0.1c7,4.3,16.8,5.4,24.2,4.5c7.1-0.9,14.1-3.2,19.3-8.3c3.4-3.3,5.5-7.7,6.3-12.3
			c9.1,6.4,22.6,4.8,32.7,1.6c6.1-1.9,11.3-5.9,15.9-10.4c5-4.9,6.8-9.9,6.1-16.9c-0.1-0.6-0.1-1.1-0.2-1.7c6,1.7,12.6-1.2,17.5-4.7
			c6.5-4.6,12.6-10.7,17.4-17.1c5.2-7,6.3-15.7,7.4-24.1C1792,353.6,1791.6,345.3,1788.2,337.2z M1743.5,415.2
			c-0.2,2.8-2.1,5-3.9,6.9c-4,4.3-8.7,7.8-14.2,9.8c-9.8,3.5-24.5,5-31.8-4.1c-1.4-1.8-4.7-0.3-4.5,1.9c0.3,5.4-1.4,10.4-5.1,14.3
			c-4.1,4.4-10.4,6-16.1,6.9c-6.1,1-12.6,0.4-18.2-2.2c-5-2.4-8.2-6.5-11.1-11.1c0,0,0,0,0-0.1c1.5-0.9,2.9-2,4-3.2
			c1-1.1-0.5-2.5-1.6-1.6c-1.6,1.3-3.6,2.1-5.6,2.7c-2.2,0.6-4.2,0.3-6.4,0.4c-1.9,0.1-2.2,2.6-0.4,3.2c2.3,0.9,4.8,0.7,7.1-0.1
			c0.5,3.9,2.2,7,4.6,9.5c0,0-0.1,0.1-0.1,0.1c-3.1,3.4-5.9,7-10,9.2c-5.1,2.8-11.7,0.9-16.9-0.7c-9.7-2.9-19.2-9.2-20.8-19.9
			c-0.3-2.2-3.1-2.3-4.5-1.2c-12.4,10-31,2.1-33-13.6c-0.5-4,0.6-7.9,1.8-11.6c1.3-4.2,2.8-8.3,5.3-12c3.8-5.7,12.3-9.4,19.1-9.2
			c0.6,7.2,3.8,16,10.2,19.4c1.5,0.8,3.3-0.8,2.4-2.4c-1.6-2.7-3.6-4.9-5-7.7c-1.6-3.2-2.4-7-2.6-10.5c-0.5-7.4,2.2-14.5,7.1-20
			c4.7-5.2,11.3-8.5,18.1-9.8c7.9-1.6,15.5,0.2,21.7,5.2c1.2,1,3.1,0,2.9-1.3c0.3-0.2,0.6-0.6,0.5-1c-0.1-4.6,0.9-8,4-11.5
			c2.9-3.3,6.5-5.8,10.3-7.8c7.7-4,16.7-4.6,25-2.1c7.9,2.5,14.5,8.4,18.1,15.8c3.9,8.1,2.7,17.4,0.1,25.6c0,0,0,0,0,0.1
			c-3-1.2-6.2-1.1-9,1.2c-1.2,1,0.3,2.8,1.6,2.1c2.7-1.6,6-0.5,8.3,1.4c1.9,1.6,2.9,4.1,4.8,5.7c1.1,1,3.3,0.1,2.8-1.6
			c-1-2.9-3.2-5.7-5.9-7.5c1.7-2.1,2.9-4.5,3.7-6.9c4.6-0.7,8.8-1.5,13.6-0.8c5.2,0.7,10,2.9,14.3,5.9c8.7,6.1,13.4,16.4,15.3,26.5
			C1743.4,410,1743.6,412.6,1743.5,415.2z M1785.6,357.1c-0.5,7.4-1.5,16-4.8,22.7c-3.1,6.2-8.8,11-13.9,15.7
			c-5.6,5.1-11.7,8.7-19.3,7.3c-2.4-9.9-7.6-19.2-15.7-25.5c-8.3-6.4-20.7-10.1-30.8-6.3c0.8-5.7-0.2-11.6-2.4-16.8
			c-4-9.4-12-16.1-21.6-19.3c-9.9-3.4-20.9-1.6-29.9,3.6c-6.1,3.5-15.6,12.1-14.5,20.2c-5.1-4.4-12.9-5.6-19.3-5.1
			c-8.7,0.6-17,4.8-23.1,10.8c-6.1,6-9.2,14.2-9.3,22.7c-4-0.8-7.3-1-11.4,0.2c-4.4,1.3-8.3,4.1-11.2,7.6c-3.3,3.8-4.9,8.7-6.6,13.3
			c-0.6,1.7-1.1,3.4-1.6,5.2c-0.6-0.1-1.2,0-1.9,0.4c-5.7,3.2-13.4,0.6-19.2-1.3c-6-2-11.7-5.3-16.5-9.3
			c-10.4-8.8-16-21.7-15.5-35.2c0.5-14.8,9.7-26.3,21.8-34c6.2-3.9,13.2-6.1,20.5-6.4c7.1-0.4,13.3,1.8,19.9,3.8
			c2.4,3.1,5.2,5.8,8.3,7.9c2.1,1.4,4.9-1.4,3.4-3.4c-5.9-8.4-12-16-12.9-26.6c-0.4-5.1,0.6-10.2,3-14.7c2.7-5.1,7.4-8.9,11.7-12.5
			c4.1-3.5,8.5-6.6,13.7-8.2c5.7-1.8,12-1.6,17.9-1.1c5.7,0.5,11.2,1.9,16.5,3.8c3.9,1.4,12.6,4.1,13,9.1c0.3,3.3,4.9,4.2,5.9,0.8
			c3.2-10.5,6.6-21.6,15-29.1c9.1-8.2,24.1-8.5,35.5-6.2c11.9,2.4,22.6,8.9,30.3,18.4c3.8,4.7,6.6,10.3,8.5,16
			c1.9,5.9,2.1,11.8,2.7,17.9c-6.1,1.3-12.6,4.5-16.2,9.6c-2.2-1.5-4.7-2.7-6.7-3.5c-5.2-2.1-12.2-2.9-17.4-0.3
			c-3-7.9-17-9.8-22.8-3.9c-0.9,1,0,2.2,1.2,2.1c3.6-0.5,7.1-1.3,10.7-0.7c3.3,0.6,7.1,2.8,6.9,6.6c-0.1,2,2.6,3.1,3.9,1.6
			c3.5-4,9.7-3.3,14.4-2.1c4.7,1.2,12.5,5.1,13.3,10.6c0.2,1.3,2.4,1.3,2.6,0c0.5-3.2-1.1-5.9-3.4-8.2c4.8-3.1,9.3-5.7,15.1-6.9
			c6.7-1.3,13.4,0,19.7,2.4c12.4,4.6,22.9,15.4,28.8,27.1C1785,343.5,1786.1,350.2,1785.6,357.1z"/>
</g>
</svg>
